<svg xmlns="http://www.w3.org/2000/svg" width="512" height="512" viewBox="0 0 512 512" xml:space="preserve"><path fill="#ffd5ae" d="M368.35 212.39c0-50.32-29.76-81.7-48.06-69.25-18.3 12.44-34.18 15.69-64.21 15.69s-45.91-3.25-64.21-15.69-48.06 18.94-48.06 69.25l-10.35 18.85-.06-.01 1.39 48.17c.89 30.87 20.85 57.93 50.08 67.91l49.56 16.91a67.28 67.28 0 0 0 43.47 0l49.56-16.91c29.22-9.97 49.19-37.04 50.08-67.91l1.48-51.29z" data-original="#ffd5ae"/><path fill="#e3eae8" d="M299.74 285.21 256 278.86l-43.74 6.35c-14.22 2.06-24.38 10.59-24.38 20.46h.05c0 6.38 7.62 11.55 17.01 11.55 9.4 0 17.01-5.17 17.01-11.55 0 6.38 7.62 11.55 17.01 11.55 9.4 0 17.01-5.17 17.01-11.55 0 6.38 7.62 11.55 17.01 11.55 9.4 0 17.01-5.17 17.01-11.55 0 6.38 7.62 11.55 17.01 11.55 9.4 0 17.01-5.17 17.01-11.55h.08c.03-9.87-10.13-18.4-24.35-20.46" data-original="#e3eae8"/><g fill="#ffe5cf"><circle cx="196.27" cy="229.01" r="42.1" data-original="#ffe5cf"/><circle cx="315.73" cy="229.01" r="42.1" data-original="#ffe5cf"/></g><path fill="#407195" d="m320.18 410.53-28.75 28.75-9.34-9.34-12.18 22.38 10.83 31.27-8.58 18.41h130.36l-3.91-23.53c-3.69-22.22-16.5-41.37-34.78-51.98l-19.15-11.12c-9.71-5.64-20.18-9.44-30.97-11.3zm-128.36 0 28.75 28.75 9.34-9.34 12.18 22.38-10.83 31.27 8.58 18.41H109.48l3.91-23.53c3.69-22.22 16.5-41.37 34.78-51.98l19.15-11.12c9.71-5.64 20.18-9.44 30.97-11.3z" data-original="#407195"/><path d="m191.762 410.517 19.867-19.867 28.74 28.74-19.867 19.867zm99.66 28.831-19.867-19.867 28.74-28.74 19.866 19.867z" data-original="#b4d9fb" fill="#b4d9fb"/><path fill="#da387d" d="m282.09 429.94-12.18 22.38h-27.82l-12.18-22.38 10.53-10.53h31.12z" data-original="#da387d"/><path fill="#ffd5ae" d="M240.44 419.41h31.12l15.79-15.79v-42.61l-9.61 3.28a67.28 67.28 0 0 1-43.47 0l-9.61-3.28v42.61z" data-original="#ffd5ae"/><path d="m323 447.78 18-6.65-2.59-29.07c-7.89-3.83-16.19-6.52-24.69-7.99l6.46 6.46-9.78 9.78-29.66 63.28-8.58 18.41h37.28L332 460.3zm-134 0-18-6.65 2.59-29.07c7.89-3.83 16.19-6.52 24.69-7.99l-6.46 6.46 9.78 9.78 29.66 63.28 8.58 18.41h-37.28L180 460.3z" data-original="#2a4d74" fill="#2a4d74"/><path fill="#da387d" d="M256 452.32h-13.91l-10.83 31.27 8.58 18.41h32.32l8.58-18.41-10.83-31.27z" data-original="#da387d"/><path fill="#ffd5ae" d="M403.98 213.77h-1.79c-9.18 0-17.42 4.03-23.05 10.42 0 .18 0 .37-.01.55l-1.28 44.39h8.13c19.72 0 35.7-15.98 35.7-35.7v-1.97c-.01-9.77-7.93-17.69-17.7-17.69m-270.76 10.97v-.14c-5.64-6.62-14.03-10.83-23.41-10.83h-1.79c-9.77 0-17.69 7.92-17.69 17.69v1.97c0 19.72 15.98 35.7 35.7 35.7h8.48z" data-original="#ffd5ae"/><path fill="#e3eae8" d="M345.08 10c-35.17 0-41.21 23.31-41.21 23.31s-72.95-21.1-126.51-10.82-51.4 68.17-51.4 68.17-22.8 6.61-25.21 36.04c-2.74 25-4.06 54.99-3.55 90.78a17.58 17.58 0 0 1 10.81-3.71h1.79c9.38 0 17.77 4.21 23.41 10.83v.14l.19 6.49.06.01 10.35-18.85c0-50.32 29.76-81.7 48.06-69.25 18.3 12.44 34.18 15.69 64.21 15.69s45.91-3.25 64.21-15.69 48.06 18.94 48.06 69.25l10.68 15.71.1-3.36c.01-.18 0-.37.01-.55 5.63-6.39 13.87-10.42 23.05-10.42h1.79c4.23 0 8.11 1.49 11.16 3.97C417.55 50.12 379.84 10 345.08 10" data-original="#e3eae8"/><path d="M208.3 228.16c-3.31 0-6 2.69-6 6v14.36c.27 7.94 11.73 7.94 12 0v-14.36c0-3.31-2.69-6-6-6m95.4 0c-3.31 0-6 2.69-6 6v14.36c.27 7.94 11.73 7.94 12 0v-14.36c0-3.31-2.69-6-6-6m-100.52-23.57c-5.94 0-11.52 2.31-15.72 6.51-5.42 5.81 2.67 13.91 8.49 8.48 3.81-3.97 10.66-3.97 14.47 0 5.77 5.43 13.92-2.7 8.49-8.48-4.21-4.2-9.79-6.51-15.73-6.51m105.64 0c-5.94 0-11.52 2.31-15.72 6.51-5.42 5.81 2.67 13.91 8.49 8.48 3.81-3.97 10.66-3.97 14.47 0 5.77 5.43 13.92-2.7 8.49-8.48-4.21-4.2-9.79-6.51-15.73-6.51m-8.21 74.68-33.69-4.89c3.3-10.73-5.27-22.16-16.51-21.98-3.31 0-6 2.69-6 6s2.69 6 6 6c2.87 0 5.2 2.33 5.2 5.2 0 1.33-.51 2.53-1.33 3.45l-42.87 6.23c-17.72 2.63-30.23 13.79-29.42 27.43.68 9.34 10.53 16.52 22.98 16.52 6.81 0 12.84-2.14 17.01-5.62 8.5 7.43 25.53 7.43 34.03 0 8.5 7.43 25.53 7.43 34.03 0 4.18 3.47 10.21 5.62 17.01 5.62 12.34 0 22.13-7.05 22.96-16.27 1.03-13.79-11.63-25.04-29.4-27.69m17.43 26.4c0 2.21-4.39 5.55-11.01 5.55s-11.01-3.34-11.01-5.55c0-3.31-2.69-6-6-6s-6 2.69-6 6c0 2.21-4.39 5.55-11.01 5.55S262 307.88 262 305.67c-.28-7.95-11.73-7.94-12 0 0 2.21-4.39 5.55-11.01 5.55s-11.01-3.34-11.01-5.55c0-3.31-2.69-6-6-6s-6 2.69-6 6c0 2.21-4.39 5.55-11.01 5.55-7-.16-11.24-3.23-11.04-6.15.48-6.46 8.58-12.37 19.22-13.92l34.53-5.01c3.13 1.48 7.11.29 10.03-.97l41.2 5.98c10.77 1.67 19.19 7.49 19.13 14.52" data-original="#000000"/><path d="M315.73 180.91c-17.89 0-33.51 9.82-41.8 24.35l-1.15-1.38a6 6 0 0 0-4.61-2.16h-24.52c-1.78 0-3.47.79-4.61 2.16l-1.04 1.25c-8.31-14.46-23.89-24.22-41.73-24.22-63.81 2.64-63.8 93.57 0 96.2 30.6.41 54.27-29.69 46.77-59.29l3.42-4.1h18.9l3.56 4.27c-7.36 29.57 16.27 59.53 46.81 59.12 63.8-2.64 63.79-93.57 0-96.2m-119.46 84.2c-19.91 0-36.1-16.19-36.1-36.1 1.98-47.89 70.22-47.88 72.2 0 0 19.91-16.19 36.1-36.1 36.1m119.46 0c-19.91 0-36.1-16.19-36.1-36.1 1.98-47.89 70.22-47.88 72.2 0 0 19.91-16.2 36.1-36.1 36.1m36.89 215.31c-2.06-7.67-13.22-5.09-11.69 2.71l4.7 20.22c.74 3.25 4.06 5.24 7.2 4.49a5.997 5.997 0 0 0 4.49-7.2z" data-original="#000000"/><path d="M421.16 215.17c.23-19.33-.07-37.6-.91-54.33-.17-3.31-2.98-5.88-6.29-5.69-3.31.17-5.86 2.98-5.69 6.29.73 14.55 1.04 30.3.95 46.91-10.81-2.09-22.51 1.04-30.81 8.16l-4.08-6c-.49-32.96-13.92-62.75-33-72.84-8.59-4.54-17.26-4.37-24.41.5-16.51 11.23-30.73 14.65-60.83 14.65s-44.32-3.42-60.83-14.65c-7.16-4.87-15.83-5.04-24.41-.5-19.14 10.13-32.6 40.07-33.01 73.15l-3.49 6.35c-8.28-7.54-20.14-10.88-31.22-8.9-.17-30.33 1.04-57.53 3.6-80.93 1.85-24.58 20.2-30.8 20.92-30.93a6 6 0 0 0 4.32-5.99c-.32-24.94 13.18-56.65 46.53-62.05 51.5-9.88 123 10.49 123.71 10.69a6 6 0 0 0 7.48-4.26c.05-.19 5.23-18.82 35.4-18.82 29.55 0 49.92 33.96 58.9 98.2a5.998 5.998 0 0 0 11.88-1.66C408.12 61.25 392.55 5.5 345.08 4c-28.53 0-40.25 14.01-44.65 22.16-17.77-4.63-77.48-18.53-124.2-9.56-35.79 6.05-55.04 37.77-56.2 70.02-7.68 3.71-23.14 14.24-25.25 39.51-2.78 25.5-3.99 55.33-3.61 88.69-4.75 4.68-7.25 11.6-6.85 18.62-.08 24.03 20.47 43.04 44.35 41.7-.65 34.7 21.27 66.7 54.26 77.85l35.72 12.19v23.97l-2.72-2.72c-2.23-2.32-6.25-2.32-8.49 0l-12.1 12.1c-7.35 1.42-14.49 3.69-21.34 6.73-6.72 2.76-22.31 12.37-28.86 16.06-19.94 11.58-33.68 32.06-37.69 56.19l-3.91 23.53c-.64 3.61 2.26 7.02 5.93 6.98 2.88 0 5.42-2.08 5.91-5.02l3.91-23.53c3.42-20.58 15.04-38 31.87-47.78l15.44-8.96-1.59 17.88a6 6 0 0 0 3.9 6.16l10.61 3.92-4.4 6.12a6.02 6.02 0 0 0-.41 6.36l22.56 41.7c4.01 6.85 14.09 1.42 10.55-5.71l-20.77-38.39 6.81-9.47c2.33-3.06.85-7.89-2.79-9.13l-13.7-5.06 1.87-21.05a87 87 0 0 1 7.21-2.79c.2.99 9.34 9.63 10.14 10.56 6.44 13.75 31.93 68.08 37.79 80.72 1.31 2.94 5.08 4.32 7.97 2.9a6 6 0 0 0 2.9-7.97l-7.55-16.21 8.63-24.94h19.28l8.63 24.94-7.55 16.21a6 6 0 0 0 2.9 7.97c2.93 1.39 6.57.13 7.97-2.9 5.66-12.23 31.55-67.42 37.79-80.72.6-.72 10.08-9.72 10.14-10.56 2.44.82 4.85 1.76 7.22 2.79l1.87 21.05-13.7 5.06c-3.64 1.24-5.12 6.07-2.79 9.13l6.81 9.47-20.77 38.39c-3.54 7.1 6.53 12.57 10.55 5.71l22.56-41.7c1.09-2.02.94-4.49-.41-6.36l-4.4-6.12 10.61-3.92a6 6 0 0 0 3.9-6.16l-1.59-17.88 15.44 8.96c16.84 9.78 28.45 27.19 31.87 47.77l3.91 23.53c.53 3.29 3.71 5.49 6.9 4.94a6 6 0 0 0 4.94-6.9l-3.91-23.53c-4.01-24.13-17.74-44.61-37.69-56.18l-19.15-11.12c-9.65-5.56-20.13-9.55-31.05-11.66l-12.1-12.1c-2.23-2.32-6.25-2.32-8.49 0l-2.72 2.72v-23.85l36.06-12.3c32.99-11.14 54.92-43.15 54.26-77.85 23.77 1.18 44.07-17.82 44-41.7.44-6.86-1.92-13.63-6.46-18.29m-295.13 47.96c-16.38 0-29.7-13.32-29.7-29.7v-1.98c0-6.45 5.25-11.69 11.69-11.69 7.16-.36 14.23 2.13 19.26 7.24l.2 6.87a26.6 26.6 0 0 0-12.91-4.55l-3.8-.29c-7.94-.32-8.83 11.07-.93 11.96l3.8.29c7.28.56 13.15 6.48 13.66 13.76.07.98.39 1.87.86 2.65l.16 5.43h-2.29zm155.55 204.53-5.13-14.81 7.08-13 3.66 3.66c1.34 1.32 3.14 1.95 4.91 1.69zm-46.03-14.8-5.13 14.81-10.52-22.45c1.77.26 3.57-.37 4.91-1.69l3.66-3.66zm-23.86-53.71c4.9 4.9 15.3 15.31 20.26 20.26l-11.38 11.38-20.26-20.26zm33.96 47.17-8.33-15.3 5.6-5.6h26.15l5.6 5.6-8.33 15.3zm54.66-47.17 11.38 11.38-20.26 20.26-11.38-11.38zm-23.16 6.19-8.07 8.07h-26.15l-12.27-12.27V369.4c16.27 5.96 34.42 5.96 50.69 0v31.74zm48.38-63.72c-79.43 26.94-59.47 26.83-138.72 0-26.71-9.11-45.2-34.19-46.02-62.4-.36-12.43-.98-34-1.34-46.42l9.62-17.52c.49-.88.74-1.88.74-2.89 0-32.83 13.4-57.1 26.63-64.11 4.6-2.43 8.65-2.5 12.05-.19 18.62 12.66 35.04 16.73 67.58 16.73s48.96-4.07 67.58-16.73c3.4-2.31 7.45-2.25 12.05.19 13.23 7 26.63 31.27 26.63 64.11 0 1.2.36 2.38 1.04 3.37l9.58 14.1c-.22 7.7-1.22 42.46-1.42 49.36-.79 28.21-19.29 53.29-46 62.4m90.14-108.18c.06 17.14-14.62 30.68-31.65 29.7l.18-6.13c.26-.61.44-1.26.49-1.95.51-7.28 6.39-13.2 13.66-13.76l3.8-.29c7.89-.89 7.02-12.28-.93-11.96l-3.8.29c-4.6.36-8.88 1.9-12.56 4.31l.2-6.98c5.01-4.87 11.93-7.23 18.91-6.89 6.45 0 11.69 5.25 11.69 11.69v1.97z" data-original="#000000"/><path d="M406.62 137.21c0 3.31 2.69 6 6 6 7.94-.27 7.94-11.73 0-12-3.31 0-6 2.69-6 6" data-original="#000000"/></svg>