<svg xmlns="http://www.w3.org/2000/svg" width="512" height="512" viewBox="0 0 1.707 1.707" xml:space="preserve" fill-rule="evenodd"><path fill="#000002" d="M.283 1.678a.207.207 0 0 1-.206-.206v-.437a.02.02 0 0 1 .04 0v.437c0 .092.075.166.166.166l1.35-.008c.015-.005.032-.014.03-.034-.002-.017-.016-.032-.03-.032h-.215a.02.02 0 0 1 0-.04h.218c.016-.004.033-.013.03-.033-.002-.017-.016-.032-.03-.032h-.215a.02.02 0 0 1 0-.04h.213c.016-.004.033-.014.03-.034-.001-.015-.014-.03-.027-.031H1.42a.02.02 0 0 1 0-.04h.215c.016-.004.033-.014.03-.034-.001-.016-.015-.031-.03-.031h-.214a.02.02 0 0 1 0-.04h.106a.05.05 0 0 0-.003-.035.05.05 0 0 0-.026-.02H1.39a.8.8 0 0 0-.16.145.02.02 0 0 1-.015.007H.574a.02.02 0 0 1-.02-.02v-.25a.02.02 0 0 1 .04 0v.23h.612c.028-.03.126-.137.175-.152h.124c.004 0 .038.01.055.041a.1.1 0 0 1 .008.054h.068c.034 0 .065.03.07.066a.07.07 0 0 1-.024.06q.019.019.022.045a.07.07 0 0 1-.022.059.1.1 0 0 1 .024.047.07.07 0 0 1-.025.06q.018.019.022.045c.003.03-.011.065-.063.078h-.005zM.573.441a.02.02 0 0 1-.02-.02V.287a.219.219 0 0 0-.436 0V.42a.02.02 0 0 1-.04 0V.287a.259.259 0 0 1 .517 0V.42a.02.02 0 0 1-.02.02z" data-original="#000002"/><path fill="#000002" d="M.582 1.055H.088A.09.09 0 0 1 0 .967V.49C0 .44.04.4.088.4h.494a.09.09 0 0 1 .089.089v.076a.02.02 0 0 1-.02.02.142.142 0 0 0 0 .284.02.02 0 0 1 .02.02v.077c0 .049-.04.088-.089.088zM.088.441A.05.05 0 0 0 .04.49v.477c0 .027.022.048.048.048h.494A.05.05 0 0 0 .631.967V.909a.182.182 0 0 1 0-.361V.49A.05.05 0 0 0 .582.44H.088z" data-original="#000002"/><path fill="#000002" d="M.27 1.055H.088A.09.09 0 0 1 0 .967V.49C0 .44.04.4.088.4H.27C.319.4.358.44.358.489v.477c0 .049-.04.088-.088.088zM.088.441A.05.05 0 0 0 .04.49v.477c0 .027.022.048.048.048H.27A.05.05 0 0 0 .318.967V.49A.05.05 0 0 0 .27.44zM.65.91A.182.182 0 1 1 .652.546a.182.182 0 0 1 0 .364zm0-.324A.142.142 0 1 0 .652.87a.142.142 0 0 0 0-.284z" data-original="#000002"/><path fill="#000002" d="M.65.782a.054.054 0 1 1 0-.108.054.054 0 0 1 0 .108m0-.068a.014.014 0 1 0 0 .028.014.014 0 0 0 0-.028" data-original="#000002"/><path fill="#000002" d="M.65.714a.02.02 0 0 1-.02-.02v-.04a.02.02 0 0 1 .04 0v.04a.02.02 0 0 1-.02.02m.064.531c-.138 0-.25-.094-.25-.21a.02.02 0 0 1 .04 0c0 .094.094.17.21.17s.21-.076.21-.17V.662a.02.02 0 0 1 .04 0v.373c0 .116-.113.21-.25.21" data-original="#000002"/><path fill="#000002" d="M.943.682C.874.682.82.607.82.512s.054-.17.123-.17c.07 0 .123.074.123.17 0 .095-.054.17-.123.17m0-.3C.898.381.86.44.86.511c0 .07.038.13.083.13s.083-.06.083-.13S.988.381.943.381z" data-original="#000002"/><path fill="#000002" d="M.912.465H.851a.02.02 0 0 1 0-.04h.061a.02.02 0 0 1 0 .04M.902.55h-.06a.02.02 0 0 1 0-.04h.06a.02.02 0 0 1 0 .04m.143-.037h-.06a.02.02 0 0 1 0-.04h.06a.02.02 0 0 1 0 .04m-.009.085H.974a.02.02 0 0 1 0-.04h.062a.02.02 0 0 1 0 .04M.104.916a.02.02 0 0 1-.02-.02V.56a.02.02 0 0 1 .04 0v.336a.02.02 0 0 1-.02.02M.65.621a.02.02 0 0 1-.02-.02V.566a.02.02 0 0 1 .04 0v.035a.02.02 0 0 1-.02.02m.09.037A.02.02 0 0 1 .727.624L.751.6a.02.02 0 0 1 .028.028L.755.653A.02.02 0 0 1 .74.658m.073.09H.778a.02.02 0 0 1 0-.04h.035a.02.02 0 0 1 0 .04M.765.863A.02.02 0 0 1 .751.857L.726.832A.02.02 0 1 1 .755.804l.024.025a.02.02 0 0 1-.014.034M.65.91A.02.02 0 0 1 .63.89V.855a.02.02 0 0 1 .04 0V.89a.02.02 0 0 1-.02.02M.536.863A.02.02 0 0 1 .522.829L.547.804a.02.02 0 0 1 .028.028L.55.857a.02.02 0 0 1-.014.006M.524.748H.489a.02.02 0 0 1 0-.04h.035a.02.02 0 0 1 0 .04M.56.658A.02.02 0 0 1 .548.653L.522.628A.02.02 0 1 1 .55.6l.025.024a.02.02 0 0 1-.014.034zm.552 1.015H.86a.02.02 0 0 1-.02-.02v-.367a.02.02 0 0 1 .02-.02h.253a.02.02 0 0 1 .02.02v.367a.02.02 0 0 1-.02.02zm-.233-.04h.213v-.327H.88z" data-original="#000002"/><path fill="#fff" d="M.764.813A.14.14 0 0 0 .791.748H.778a.02.02 0 0 1 0-.04H.79A.14.14 0 0 0 .764.643l-.01.01a.02.02 0 0 1-.028 0 .02.02 0 0 1 0-.029l.01-.01A.14.14 0 0 0 .67.589V.6a.02.02 0 1 1-.04 0V.588a.14.14 0 0 0-.065.027l.009.01a.02.02 0 1 1-.028.028l-.01-.01A.14.14 0 0 0 .51.708h.014a.02.02 0 0 1 0 .04H.51a.14.14 0 0 0 .027.065l.01-.009a.02.02 0 0 1 .028.028l-.01.01a.2.2 0 0 0 .066.027V.855a.02.02 0 0 1 .04 0V.87A.14.14 0 0 0 .736.842l-.01-.01A.02.02 0 1 1 .755.804l.01.01zM.671.678a.054.054 0 1 1-.04 0V.655a.02.02 0 0 1 .04 0z" data-original="#ffffff"/><path fill="#3c58a0" d="M.523.599A.18.18 0 0 1 .631.548V.49A.05.05 0 0 0 .582.44H.344q.014.02.014.049v.477a.1.1 0 0 1-.014.048h.238A.05.05 0 0 0 .631.967V.909a.181.181 0 0 1-.108-.31" data-original="#3c58a0"/><path fill="#ffbfab" d="M.27.401h.284V.287a.219.219 0 0 0-.437 0V.4z" data-original="#ffbfab"/><path fill="#6289cc" d="M.318.967V.49A.05.05 0 0 0 .27.44H.088A.05.05 0 0 0 .04.49v.477c0 .027.022.048.048.048H.27A.05.05 0 0 0 .318.967M.124.56v.336a.02.02 0 1 1-.04 0V.56a.02.02 0 0 1 .04 0" data-original="#6289cc"/><path fill="#ffbfab" d="M.466 1.055H.117v.417c0 .092.075.166.166.166l.556-.003v-.33H.574a.02.02 0 0 1-.02-.02v-.089a.2.2 0 0 1-.088-.14z" data-original="#ffbfab"/><path fill="#ff6679" d="M.879 1.306v.327h.213v-.327z" data-original="#ff6679"/><path fill="#ffbfab" d="M1.132 1.306v.327l.5-.003c.016-.005.033-.014.03-.034-.001-.017-.015-.032-.029-.032h-.215a.02.02 0 0 1 0-.04h.218c.016-.004.033-.013.03-.033-.002-.017-.016-.032-.03-.032h-.215a.02.02 0 0 1 0-.04h.213c.016-.004.033-.014.03-.034-.001-.015-.014-.03-.027-.031H1.42a.02.02 0 0 1 0-.04h.215c.016-.004.033-.014.03-.034-.001-.016-.015-.031-.03-.031h-.214a.02.02 0 0 1 0-.04h.106a.05.05 0 0 0-.003-.035.05.05 0 0 0-.026-.02H1.39a.8.8 0 0 0-.16.145.02.02 0 0 1-.015.007z" data-original="#ffbfab"/><path fill="#3c58a0" d="M.944.642q.037-.002.06-.044h-.03a.02.02 0 0 1 0-.04h.047a.2.2 0 0 0 .005-.045H.984a.02.02 0 0 1 0-.04h.038C1.012.42.98.38.943.38Q.906.383.882.425h.03a.02.02 0 0 1 0 .04H.866A.2.2 0 0 0 .86.51h.042a.02.02 0 0 1 0 .04H.864c.01.052.042.092.079.092z" data-original="#3c58a0"/><path fill="#6289cc" d="M.65.742a.014.014 0 1 0 0-.028.014.014 0 0 0 0 .028" data-original="#6289cc"/><path fill="#ffbfab" d="M.554 1.145v-.09H.506a.16.16 0 0 0 .048.09" data-original="#ffbfab"/></svg>