<svg xmlns="http://www.w3.org/2000/svg" width="512" height="512" viewBox="0 0 512 512" xml:space="preserve"><path d="M216.651 67.69H103.289v286.765h91.25c54.048-19.131 92.961-70.301 92.961-130.787 0-51.283-33.645-108.749-70.849-155.978" fill="#fce3a0" data-original="#fce3a0"/><path d="M107.134 244.036c0-55.757 51.343-124.144 92.917-167.588 4.466-4.667 10.312-7.699 16.601-8.759-14.303-18.158-29.131-34.805-42.777-49.003-6.904-7.182-16.417-11.2-26.375-11.186-9.945.014-19.499 4.045-26.378 11.233C70.284 71.859 7.5 155.485 7.5 223.667c0 78.88 63.038 138.831 140 138.833 16.479.001 32.323-2.836 47.039-8.046-49.993-11.744-87.405-55.465-87.405-110.418" fill="#ffce71" data-original="#ffce71"/><path d="M426.06 178.103H300.552v317.49h101.026c59.839-21.181 102.922-77.834 102.922-144.8 0-56.777-37.25-120.4-78.44-172.69" fill="#ffb39d" data-original="#ffb39d"/><path d="M304.809 373.344c0-61.731 56.844-137.445 102.872-185.544 4.944-5.167 11.417-8.523 18.379-9.697-15.835-20.103-32.252-38.534-47.36-54.253-7.643-7.953-18.175-12.401-29.2-12.386-11.01.015-21.588 4.478-29.204 12.437-54.088 56.521-127.533 151.632-125.757 230.553C196.464 439.967 265.49 504.497 349.5 504.5c18.245.001 35.785-3.14 52.078-8.908-55.349-13.002-96.769-61.407-96.769-122.248" fill="#ff8f71" data-original="#ff8f71"/><path d="M70.593 146c-16.016 0-29 10.297-29 23s12.984 23 29 23 29-10.298 29-23-12.984-23-29-23m158 0c-16.016 0-29 10.297-29 23s12.984 23 29 23 29-10.298 29-23-12.984-23-29-23" fill="#ff8e9e" data-original="#ff8e9e"/><ellipse cx="272.04" cy="303.419" rx="29.355" ry="23.377" fill="#fff" data-original="#ffffff"/><ellipse cx="431.153" cy="303.419" rx="29.355" ry="23.377" fill="#fff" data-original="#ffffff"/><path d="M378.7 123.85c-7.644-7.953-18.176-12.401-29.2-12.386-11.01.015-21.588 4.478-29.204 12.437-13.432 14.036-28.057 30.453-42.427 48.409-43.499 54.353-84.664 122.821-83.329 182.144 1.925 85.513 70.951 150.043 154.96 150.046 18.245.001 35.785-3.14 52.078-8.907C461.417 474.412 504.5 417.759 504.5 350.792c0-78.509-71.247-170.182-125.8-226.942" style="stroke-width:15;stroke-linecap:round;stroke-linejoin:round;stroke-miterlimit:10;stroke-dasharray:680,30,1000,0,1000,0" fill="none" stroke="#000" stroke-width="15" stroke-linecap="round" stroke-linejoin="round" stroke-miterlimit="10" stroke-dasharray="680,30,1000,0,1000,0" data-original="#000000"/><path d="M87.093 134.376v12m125-12v12M133.129 146c4.003 4.594 9.892 7.501 16.464 7.501s12.461-2.907 16.464-7.501m123.091 123.732v10.367m124.897-10.367v10.367m-45.984 7.96c-4.003-4.594-9.893-7.501-16.464-7.501-6.572 0-12.461 2.907-16.464 7.501m-58.228-29.854 24.065 6.448m125.318-6.448-24.065 6.448M170.26 214.834v49.958c.552.095 17.5 0 17.5 0m-142.5-49.958v50m30-50v50m-30-25.858h30m65 .858c0-13.594-6.703-25-20.391-25H105.26v50h14.609c13.683 0 20.391-11.398 20.391-25m256.744 124.621v49.958c.552.095 17.5 0 17.5 0m-130-49.958v49.958c.552.095 17.5 0 17.5 0m65-24.958c0-13.594-6.703-25-20.391-25h-14.609v50h14.609c13.683 0 20.391-11.399 20.391-25" style="stroke-width:15;stroke-linecap:round;stroke-linejoin:round;stroke-miterlimit:10" fill="none" stroke="#000" stroke-width="15" stroke-linecap="round" stroke-linejoin="round" stroke-miterlimit="10" data-original="#000000"/><path d="M277.869 172.311c-12.613-36.171-36.096-72.729-61.217-104.621-14.303-18.158-29.131-34.805-42.777-49.003C166.971 11.504 157.458 7.486 147.5 7.5c-9.945.014-19.499 4.045-26.378 11.233C70.284 71.859 7.5 155.485 7.5 223.667c0 78.88 63.038 138.831 140 138.833 16.479.001 32.323-2.836 47.04-8.046" style="stroke-width:15;stroke-linecap:round;stroke-linejoin:round;stroke-miterlimit:10;stroke-dasharray:300,30,1000,0,1000,0" fill="none" stroke="#000" stroke-width="15" stroke-linecap="round" stroke-linejoin="round" stroke-miterlimit="10" stroke-dasharray="300,30,1000,0,1000,0" data-original="#000000"/></svg>